<svg xmlns="http://www.w3.org/2000/svg" viewBox="0 0 120 150" fill="none"><defs><linearGradient id="a" x1="89" y1="12" x2="33" y2="143" gradientUnits="userSpaceOnUse"><stop stop-color="#FFE4A7"/><stop offset=".4" stop-color="#FFA53C"/><stop offset=".75" stop-color="#FF592C"/><stop offset="1" stop-color="#BD261A"/></linearGradient><linearGradient id="b" x1="67" y1="78" x2="50" y2="143" gradientUnits="userSpaceOnUse"><stop stop-color="#FFF6D5"/><stop offset="1" stop-color="#FFD46F"/></linearGradient></defs><path d="M66 3c9 26-13 42-9 65 7-4 13-13 16-24 24 20 42 39 41 60-1 29-24 46-52 46S8 132 7 106c-2-28 11-40 25-58-1 16 3 24 10 29C39 49 59 37 66 3Z" fill="url(#a)"/><path d="M62 79c4 18 27 28 26 43-1 16-13 28-27 28-17 0-30-13-29-28 1-15 19-23 30-43Z" fill="url(#b)"/></svg>
